<mxfile host="app.diagrams.net" modified="2024-02-09T05:57:20.492Z" agent="Mozilla/5.0 (X11; Linux x86_64; rv:109.0) Gecko/20100101 Firefox/119.0" etag="qpZHUM_ZUxo_-EW-B2Ke" version="23.1.2" type="device" pages="2">
  <diagram id="GqU0z9lpVKl5oe9o9Uek" name="1">
    <mxGraphModel dx="1834" dy="766" grid="1" gridSize="10" guides="1" tooltips="1" connect="1" arrows="1" fold="1" page="0" pageScale="1" pageWidth="827" pageHeight="1169" math="0" shadow="0">
      <root>
        <mxCell id="0" />
        <mxCell id="1" parent="0" />
        <mxCell id="VpgkBebc5AylMmgusYEk-4" value="" style="verticalLabelPosition=bottom;aspect=fixed;html=1;verticalAlign=top;strokeColor=none;align=center;outlineConnect=0;shape=mxgraph.citrix.laptop_2;" parent="1" vertex="1">
          <mxGeometry x="-240" y="560" width="116" height="86.5" as="geometry" />
        </mxCell>
        <mxCell id="VpgkBebc5AylMmgusYEk-6" value="" style="verticalLabelPosition=bottom;aspect=fixed;html=1;verticalAlign=top;strokeColor=none;align=center;outlineConnect=0;shape=mxgraph.citrix.tablet_1;" parent="1" vertex="1">
          <mxGeometry x="-185" y="430" width="61" height="79" as="geometry" />
        </mxCell>
        <mxCell id="VpgkBebc5AylMmgusYEk-9" value="" style="endArrow=classic;html=1;" parent="1" edge="1">
          <mxGeometry width="50" height="50" relative="1" as="geometry">
            <mxPoint x="-115" y="610" as="sourcePoint" />
            <mxPoint x="55" y="560" as="targetPoint" />
          </mxGeometry>
        </mxCell>
        <mxCell id="VpgkBebc5AylMmgusYEk-10" value="" style="endArrow=classic;html=1;" parent="1" source="VpgkBebc5AylMmgusYEk-6" edge="1">
          <mxGeometry width="50" height="50" relative="1" as="geometry">
            <mxPoint x="-115" y="480" as="sourcePoint" />
            <mxPoint x="55" y="540" as="targetPoint" />
          </mxGeometry>
        </mxCell>
        <mxCell id="7ZjIOJCY9517mbcGj51Z-1" value="Single Point of Failure" style="text;html=1;align=left;verticalAlign=middle;resizable=0;points=[];autosize=1;fontStyle=1;fontSize=16;fontColor=#990000;" parent="1" vertex="1">
          <mxGeometry x="-240" y="355" width="190" height="30" as="geometry" />
        </mxCell>
        <mxCell id="7ZjIOJCY9517mbcGj51Z-2" value="Webserver und Datenbank sind nicht redundant ausgelegt" style="text;html=1;align=left;verticalAlign=middle;resizable=0;points=[];autosize=1;fontSize=12;fontColor=#000066;" parent="1" vertex="1">
          <mxGeometry x="-240" y="375" width="330" height="30" as="geometry" />
        </mxCell>
        <mxCell id="lAntZufb2E_Ljl99HuMJ-1" value="" style="group" parent="1" vertex="1" connectable="0">
          <mxGeometry x="75" y="509" width="200" height="211" as="geometry" />
        </mxCell>
        <mxCell id="VpgkBebc5AylMmgusYEk-13" style="rounded=0;orthogonalLoop=1;jettySize=auto;html=1;endArrow=none;endFill=0;" parent="lAntZufb2E_Ljl99HuMJ-1" target="VpgkBebc5AylMmgusYEk-12" edge="1">
          <mxGeometry relative="1" as="geometry">
            <mxPoint x="60" y="65" as="sourcePoint" />
          </mxGeometry>
        </mxCell>
        <mxCell id="VpgkBebc5AylMmgusYEk-7" value="" style="verticalLabelPosition=bottom;aspect=fixed;html=1;verticalAlign=top;strokeColor=none;align=center;outlineConnect=0;shape=mxgraph.citrix.web_server;" parent="lAntZufb2E_Ljl99HuMJ-1" vertex="1">
          <mxGeometry width="76.5" height="90" as="geometry" />
        </mxCell>
        <mxCell id="VpgkBebc5AylMmgusYEk-11" value="&lt;div&gt;&lt;b&gt;Webserver mit Datenbank&lt;br&gt;&lt;/b&gt;&lt;/div&gt;" style="text;html=1;align=left;verticalAlign=top;resizable=0;points=[];autosize=1;" parent="lAntZufb2E_Ljl99HuMJ-1" vertex="1">
          <mxGeometry y="91" width="170" height="30" as="geometry" />
        </mxCell>
        <mxCell id="VpgkBebc5AylMmgusYEk-12" value="" style="verticalLabelPosition=bottom;aspect=fixed;html=1;verticalAlign=top;strokeColor=none;align=center;outlineConnect=0;shape=mxgraph.citrix.database;" parent="lAntZufb2E_Ljl99HuMJ-1" vertex="1">
          <mxGeometry x="90" y="40" width="42.5" height="50" as="geometry" />
        </mxCell>
        <mxCell id="Fj6yaWO7JapBtvC22iyQ-1" value="Clients" style="text;html=1;align=left;verticalAlign=top;resizable=0;points=[];autosize=1;fontStyle=1" vertex="1" parent="1">
          <mxGeometry x="-160" y="640" width="60" height="30" as="geometry" />
        </mxCell>
      </root>
    </mxGraphModel>
  </diagram>
  <diagram name="2" id="rDTG9UfyMa3qH_jO5TQc">
    <mxGraphModel dx="2234" dy="366" grid="1" gridSize="10" guides="1" tooltips="1" connect="1" arrows="1" fold="1" page="0" pageScale="1" pageWidth="827" pageHeight="1169" math="0" shadow="0">
      <root>
        <mxCell id="pH1GOJ2zEENymj_nEEbA-0" />
        <mxCell id="pH1GOJ2zEENymj_nEEbA-1" parent="pH1GOJ2zEENymj_nEEbA-0" />
        <mxCell id="RDgO9BjQI3_66q2grpVv-2" value="" style="verticalLabelPosition=bottom;aspect=fixed;html=1;verticalAlign=top;strokeColor=none;align=center;outlineConnect=0;shape=mxgraph.citrix.database;" vertex="1" parent="pH1GOJ2zEENymj_nEEbA-1">
          <mxGeometry x="270" y="680" width="42.5" height="50" as="geometry" />
        </mxCell>
        <mxCell id="pH1GOJ2zEENymj_nEEbA-2" value="" style="verticalLabelPosition=bottom;aspect=fixed;html=1;verticalAlign=top;strokeColor=none;align=center;outlineConnect=0;shape=mxgraph.citrix.laptop_2;" parent="pH1GOJ2zEENymj_nEEbA-1" vertex="1">
          <mxGeometry x="-480" y="563.5" width="116" height="86.5" as="geometry" />
        </mxCell>
        <mxCell id="pH1GOJ2zEENymj_nEEbA-3" value="Ausfallsicherheit durch Load Balancing" style="text;html=1;align=left;verticalAlign=middle;resizable=0;points=[];autosize=1;fontStyle=1;fontSize=16;fontColor=#990000;" parent="pH1GOJ2zEENymj_nEEbA-1" vertex="1">
          <mxGeometry x="-480" y="420" width="320" height="30" as="geometry" />
        </mxCell>
        <mxCell id="pH1GOJ2zEENymj_nEEbA-4" value="&lt;div&gt;Ein vorgeschalteter Load Balancer verteilt die Last auf mehrere Webservice-Instanzen.&lt;/div&gt;&lt;div&gt;Load Balancer und Datenbank sind ebenfalls redundant ausgelegt, um Single Point of Failure zu vermeiden.&lt;br&gt;&lt;/div&gt;" style="text;html=1;align=left;verticalAlign=middle;resizable=0;points=[];autosize=1;fontSize=12;fontColor=#000066;" parent="pH1GOJ2zEENymj_nEEbA-1" vertex="1">
          <mxGeometry x="-480" y="445" width="600" height="40" as="geometry" />
        </mxCell>
        <mxCell id="pH1GOJ2zEENymj_nEEbA-5" value="" style="group" parent="pH1GOJ2zEENymj_nEEbA-1" vertex="1" connectable="0">
          <mxGeometry x="50" y="490" width="170" height="171" as="geometry" />
        </mxCell>
        <mxCell id="pH1GOJ2zEENymj_nEEbA-7" value="" style="verticalLabelPosition=bottom;aspect=fixed;html=1;verticalAlign=top;strokeColor=none;align=center;outlineConnect=0;shape=mxgraph.citrix.web_server;" parent="pH1GOJ2zEENymj_nEEbA-5" vertex="1">
          <mxGeometry width="76.5" height="90" as="geometry" />
        </mxCell>
        <mxCell id="pH1GOJ2zEENymj_nEEbA-8" value="&lt;div&gt;&lt;font color=&quot;#000000&quot;&gt;&lt;b&gt;Webserver&lt;br&gt;&lt;/b&gt;&lt;/font&gt;&lt;/div&gt;" style="text;html=1;align=left;verticalAlign=top;resizable=0;points=[];autosize=1;fontColor=#990000;" parent="pH1GOJ2zEENymj_nEEbA-5" vertex="1">
          <mxGeometry y="91" width="80" height="30" as="geometry" />
        </mxCell>
        <mxCell id="pH1GOJ2zEENymj_nEEbA-21" value="" style="endArrow=classic;html=1;strokeColor=#000000;fontSize=10;fontColor=#990000;" parent="pH1GOJ2zEENymj_nEEbA-1" edge="1">
          <mxGeometry width="50" height="50" relative="1" as="geometry">
            <mxPoint x="-350" y="600" as="sourcePoint" />
            <mxPoint x="-220" y="690" as="targetPoint" />
          </mxGeometry>
        </mxCell>
        <mxCell id="pH1GOJ2zEENymj_nEEbA-22" value="" style="endArrow=classic;html=1;strokeColor=#000000;fontSize=10;fontColor=#990000;" parent="pH1GOJ2zEENymj_nEEbA-1" edge="1">
          <mxGeometry width="50" height="50" relative="1" as="geometry">
            <mxPoint x="-130" y="680" as="sourcePoint" />
            <mxPoint x="40" y="540" as="targetPoint" />
          </mxGeometry>
        </mxCell>
        <mxCell id="pH1GOJ2zEENymj_nEEbA-23" value="" style="endArrow=classic;html=1;strokeColor=#000000;fontSize=10;fontColor=#990000;" parent="pH1GOJ2zEENymj_nEEbA-1" edge="1">
          <mxGeometry width="50" height="50" relative="1" as="geometry">
            <mxPoint x="-130" y="715" as="sourcePoint" />
            <mxPoint x="40" y="715" as="targetPoint" />
          </mxGeometry>
        </mxCell>
        <mxCell id="pH1GOJ2zEENymj_nEEbA-27" value="" style="verticalLabelPosition=bottom;aspect=fixed;html=1;verticalAlign=top;strokeColor=none;align=center;outlineConnect=0;shape=mxgraph.citrix.tablet_1;" parent="pH1GOJ2zEENymj_nEEbA-1" vertex="1">
          <mxGeometry x="-425" y="731" width="61" height="79" as="geometry" />
        </mxCell>
        <mxCell id="pH1GOJ2zEENymj_nEEbA-28" value="" style="endArrow=classic;html=1;strokeColor=#000000;fontSize=10;fontColor=#000066;" parent="pH1GOJ2zEENymj_nEEbA-1" edge="1">
          <mxGeometry width="50" height="50" relative="1" as="geometry">
            <mxPoint x="-350" y="780" as="sourcePoint" />
            <mxPoint x="-220" y="700" as="targetPoint" />
          </mxGeometry>
        </mxCell>
        <mxCell id="h3BOs2UNjSBcer3_QiG--0" value="" style="endArrow=classic;html=1;strokeColor=#000000;fontSize=10;fontColor=#000066;" parent="pH1GOJ2zEENymj_nEEbA-1" edge="1">
          <mxGeometry x="-210" y="640" width="50" height="50" as="geometry">
            <mxPoint x="-130" y="720" as="sourcePoint" />
            <mxPoint x="40" y="860" as="targetPoint" />
          </mxGeometry>
        </mxCell>
        <mxCell id="pH1GOJ2zEENymj_nEEbA-33" value="" style="verticalLabelPosition=bottom;aspect=fixed;html=1;verticalAlign=top;strokeColor=none;align=center;outlineConnect=0;shape=mxgraph.citrix.edgesight_server;shadow=0;fillColor=none;fontSize=10;fontColor=#000000;" parent="pH1GOJ2zEENymj_nEEbA-1" vertex="1">
          <mxGeometry x="-210" y="650" width="76.5" height="90" as="geometry" />
        </mxCell>
        <mxCell id="pH1GOJ2zEENymj_nEEbA-34" value="&lt;font color=&quot;#000000&quot;&gt;&lt;b&gt;Load Balancer&lt;br&gt;&lt;/b&gt;&lt;/font&gt;" style="text;html=1;align=left;verticalAlign=top;resizable=0;points=[];autosize=1;fontColor=#004C99;" parent="pH1GOJ2zEENymj_nEEbA-1" vertex="1">
          <mxGeometry x="-210" y="755.5" width="110" height="30" as="geometry" />
        </mxCell>
        <mxCell id="RDgO9BjQI3_66q2grpVv-0" value="" style="verticalLabelPosition=bottom;aspect=fixed;html=1;verticalAlign=top;strokeColor=none;align=center;outlineConnect=0;shape=mxgraph.citrix.edgesight_server;shadow=0;fillColor=none;fontSize=10;fontColor=#000000;" vertex="1" parent="pH1GOJ2zEENymj_nEEbA-1">
          <mxGeometry x="-200" y="660" width="76.5" height="90" as="geometry" />
        </mxCell>
        <mxCell id="RDgO9BjQI3_66q2grpVv-1" value="" style="verticalLabelPosition=bottom;aspect=fixed;html=1;verticalAlign=top;strokeColor=none;align=center;outlineConnect=0;shape=mxgraph.citrix.edgesight_server;shadow=0;fillColor=none;fontSize=10;fontColor=#000000;" vertex="1" parent="pH1GOJ2zEENymj_nEEbA-1">
          <mxGeometry x="-190" y="670" width="76.5" height="90" as="geometry" />
        </mxCell>
        <mxCell id="pH1GOJ2zEENymj_nEEbA-11" style="rounded=0;orthogonalLoop=1;jettySize=auto;html=1;endArrow=none;endFill=0;" parent="pH1GOJ2zEENymj_nEEbA-1" target="pH1GOJ2zEENymj_nEEbA-14" edge="1">
          <mxGeometry relative="1" as="geometry">
            <mxPoint x="110" y="715" as="sourcePoint" />
          </mxGeometry>
        </mxCell>
        <mxCell id="pH1GOJ2zEENymj_nEEbA-12" value="" style="verticalLabelPosition=bottom;aspect=fixed;html=1;verticalAlign=top;strokeColor=none;align=center;outlineConnect=0;shape=mxgraph.citrix.web_server;" parent="pH1GOJ2zEENymj_nEEbA-1" vertex="1">
          <mxGeometry x="50" y="650" width="76.5" height="90" as="geometry" />
        </mxCell>
        <mxCell id="pH1GOJ2zEENymj_nEEbA-13" value="&lt;font color=&quot;#000000&quot;&gt;&lt;b&gt;Webserver&lt;br&gt;&lt;/b&gt;&lt;/font&gt;" style="text;html=1;align=left;verticalAlign=top;resizable=0;points=[];autosize=1;" parent="pH1GOJ2zEENymj_nEEbA-1" vertex="1">
          <mxGeometry x="50" y="741" width="80" height="30" as="geometry" />
        </mxCell>
        <mxCell id="pH1GOJ2zEENymj_nEEbA-14" value="" style="verticalLabelPosition=bottom;aspect=fixed;html=1;verticalAlign=top;strokeColor=none;align=center;outlineConnect=0;shape=mxgraph.citrix.database;" parent="pH1GOJ2zEENymj_nEEbA-1" vertex="1">
          <mxGeometry x="240" y="691" width="42.5" height="50" as="geometry" />
        </mxCell>
        <mxCell id="pH1GOJ2zEENymj_nEEbA-16" style="rounded=0;orthogonalLoop=1;jettySize=auto;html=1;endArrow=none;endFill=0;" parent="pH1GOJ2zEENymj_nEEbA-1" target="pH1GOJ2zEENymj_nEEbA-19" edge="1">
          <mxGeometry relative="1" as="geometry">
            <mxPoint x="110" y="875" as="sourcePoint" />
          </mxGeometry>
        </mxCell>
        <mxCell id="pH1GOJ2zEENymj_nEEbA-17" value="" style="verticalLabelPosition=bottom;aspect=fixed;html=1;verticalAlign=top;strokeColor=none;align=center;outlineConnect=0;shape=mxgraph.citrix.web_server;" parent="pH1GOJ2zEENymj_nEEbA-1" vertex="1">
          <mxGeometry x="50" y="810" width="76.5" height="90" as="geometry" />
        </mxCell>
        <mxCell id="pH1GOJ2zEENymj_nEEbA-18" value="&lt;font color=&quot;#000000&quot;&gt;&lt;b&gt;Webserver&lt;br&gt;&lt;/b&gt;&lt;/font&gt;" style="text;html=1;align=left;verticalAlign=top;resizable=0;points=[];autosize=1;" parent="pH1GOJ2zEENymj_nEEbA-1" vertex="1">
          <mxGeometry x="50" y="901" width="80" height="30" as="geometry" />
        </mxCell>
        <mxCell id="pH1GOJ2zEENymj_nEEbA-19" value="" style="verticalLabelPosition=bottom;aspect=fixed;html=1;verticalAlign=top;strokeColor=none;align=center;outlineConnect=0;shape=mxgraph.citrix.database;" parent="pH1GOJ2zEENymj_nEEbA-1" vertex="1">
          <mxGeometry x="260" y="710" width="42.5" height="50" as="geometry" />
        </mxCell>
        <mxCell id="RDgO9BjQI3_66q2grpVv-3" style="rounded=0;orthogonalLoop=1;jettySize=auto;html=1;endArrow=none;endFill=0;" edge="1" parent="pH1GOJ2zEENymj_nEEbA-1" source="pH1GOJ2zEENymj_nEEbA-7" target="RDgO9BjQI3_66q2grpVv-2">
          <mxGeometry relative="1" as="geometry">
            <mxPoint x="120" y="885" as="sourcePoint" />
            <mxPoint x="270" y="762" as="targetPoint" />
          </mxGeometry>
        </mxCell>
        <mxCell id="2Iofqk1NcRV9FkpgLqwo-0" value="Clients" style="text;html=1;align=left;verticalAlign=top;resizable=0;points=[];autosize=1;fontStyle=1" vertex="1" parent="pH1GOJ2zEENymj_nEEbA-1">
          <mxGeometry x="-425" y="800" width="60" height="30" as="geometry" />
        </mxCell>
      </root>
    </mxGraphModel>
  </diagram>
</mxfile>
